<svg xmlns="http://www.w3.org/2000/svg" viewBox="0 0 1600 900" width="1600" height="900" role="img" aria-label="Blanc — product preview: New Assessment, ATM Studio, Admin Panel, Assessments">
  <defs>
    <linearGradient id="bg" x1="0" y1="0" x2="0" y2="1">
      <stop offset="0%"  stop-color="#0b0b0d"/>
      <stop offset="100%" stop-color="#050506"/>
    </linearGradient>
    <linearGradient id="panel" x1="0" y1="0" x2="0" y2="1">
      <stop offset="0%"  stop-color="#101014"/>
      <stop offset="100%" stop-color="#0d0d10"/>
    </linearGradient>
    <style>
      .sans   { font-family: 'Inter','SF Pro Text',system-ui,sans-serif; }
      .serif  { font-family: 'Playfair Display','DM Serif Display',Georgia,serif; }
      .mono   { font-family: 'JetBrains Mono','Fira Code','Courier New',monospace; }
      .txt    { fill: #e8e8ea; }
      .mut    { fill: #8a8a90; }
      .dim    { fill: #6a6a70; }
      .faint  { fill: #4a4a52; }
      .accent { fill: #d23f3c; }
      .panelStroke { stroke: #22222a; stroke-width: 1; }
      .subStroke   { stroke: #1a1a22; stroke-width: 1; }
    </style>
  </defs>

  <rect width="1600" height="900" fill="url(#bg)"/>

  <!-- ═══════════════ TITLE STRIP ═══════════════ -->
  <text x="30"  y="30" class="serif txt" font-size="18" font-weight="700">Blanc<tspan class="accent">.</tspan></text>
  <text x="1570" y="30" class="sans dim" font-size="10" text-anchor="end" letter-spacing="2">PRODUCT · PREVIEW</text>
  <line x1="30" y1="42" x2="1570" y2="42" stroke="#1a1a22"/>

  <!-- ══════════════════════════════════════════════════════════════
       PANEL 1 — NEW ASSESSMENT
       ══════════════════════════════════════════════════════════════ -->
  <g transform="translate(20 60)">
    <rect width="770" height="405" rx="14" fill="url(#panel)" class="panelStroke"/>

    <!-- Top bar -->
    <rect x="0" y="0" width="770" height="40" rx="14" fill="#0e0e12"/>
    <rect x="0" y="20" width="770" height="20" fill="#0e0e12"/>
    <text x="212" y="26" class="sans txt" font-size="12" font-weight="600">New Assessment</text>
    <circle cx="745" cy="20" r="6" fill="none" stroke="#5a5a60"/>
    <path d="M 742 22 l 3 3 l 5 -5" fill="none" stroke="#5a5a60"/>

    <!-- Left rail -->
    <rect x="0" y="40" width="192" height="365" fill="#0a0a0d"/>
    <text x="18" y="72" class="serif txt" font-size="14" font-weight="700">Blanc<tspan class="accent">.</tspan></text>
    <text x="18" y="86" class="sans faint" font-size="8" letter-spacing="1">THREAT MODELING STUDIO</text>

    <rect x="12" y="102" width="168" height="30" rx="8" fill="#f5f5f7"/>
    <text x="30" y="121" class="sans" fill="#0a0a0d" font-size="11" font-weight="600">+ New Assessment</text>

    <text x="18" y="156" class="sans dim" font-size="9" letter-spacing="1">WORKSPACE</text>
    <rect x="12" y="164" width="168" height="24" rx="6" fill="#17171d"/>
    <text x="26" y="180" class="sans txt" font-size="11">Assessments</text>
    <text x="26" y="204" class="sans mut" font-size="11">Under Review</text>
    <text x="26" y="226" class="sans mut" font-size="11">ATM Studio</text>

    <text x="18" y="256" class="sans dim" font-size="9" letter-spacing="1">ADMIN</text>
    <text x="26" y="278" class="sans mut" font-size="11">Admin Panel</text>

    <!-- Avatar -->
    <circle cx="30" cy="378" r="10" fill="#2a2a32"/>
    <text x="30" y="381" class="sans txt" font-size="8" text-anchor="middle" font-weight="700">SH</text>
    <text x="46" y="378" class="sans txt" font-size="10">Saddam Hussain</text>
    <text x="46" y="390" class="sans faint" font-size="8">saddam.hussain@phon…</text>

    <!-- Header row -->
    <rect x="204" y="52" width="24" height="24" rx="6" fill="#1a1a20"/>
    <rect x="212" y="60" width="8" height="8" fill="#c9c9d0"/>
    <text x="238" y="66" class="sans txt" font-size="13" font-weight="600">New Assessment</text>
    <text x="238" y="80" class="sans faint" font-size="9">Share application context and architecture</text>

    <!-- Form card -->
    <rect x="204" y="96" width="360" height="292" rx="10" fill="#0d0d11" class="subStroke"/>
    <text x="220" y="118" class="sans txt" font-size="12" font-weight="700">Application Context</text>
    <text x="220" y="132" class="sans faint" font-size="9">Identify the app, version, and ownership.</text>
    <rect x="500" y="106" width="52" height="18" rx="9" fill="#17171d" class="subStroke"/>
    <text x="526" y="118" class="sans txt" font-size="9" text-anchor="middle">Required</text>

    <text x="220" y="158" class="sans dim" font-size="8" letter-spacing="1">ORGANIZATION</text>
    <text x="220" y="176" class="sans mut" font-size="9">Organization</text>
    <rect x="220" y="182" width="160" height="24" rx="6" fill="#0a0a0d" class="subStroke"/>
    <text x="232" y="198" class="sans faint" font-size="9">Select organization</text>
    <path d="M 366 194 l 4 3 l 4 -3" fill="none" stroke="#5a5a60"/>

    <text x="388" y="176" class="sans mut" font-size="9">App Name</text>
    <rect x="388" y="182" width="160" height="24" rx="6" fill="#0a0a0d" class="subStroke"/>
    <text x="400" y="198" class="sans faint" font-size="9">Select application</text>
    <path d="M 534 194 l 4 3 l 4 -3" fill="none" stroke="#5a5a60"/>

    <text x="220" y="230" class="sans dim" font-size="8" letter-spacing="1">FEATURE</text>
    <text x="220" y="248" class="sans mut" font-size="9">Assessment Name</text>
    <rect x="220" y="254" width="328" height="24" rx="6" fill="#0a0a0d" class="subStroke"/>
    <text x="232" y="270" class="sans faint" font-size="9">e.g. User Authentication, Payment Flow</text>

    <text x="220" y="298" class="sans mut" font-size="9">Feature Version</text>
    <rect x="220" y="304" width="328" height="24" rx="6" fill="#0a0a0d" class="subStroke"/>
    <text x="232" y="320" class="sans txt" font-size="9">1.0.0</text>

    <text x="220" y="348" class="sans dim" font-size="8" letter-spacing="1">AUTO-GENERATED</text>
    <rect x="220" y="354" width="328" height="22" rx="6" fill="#0a0a0d" class="subStroke"/>
    <text x="232" y="369" class="sans faint" font-size="8">◊ ARTIFACT NAME · # ARTIFACT ID</text>

    <!-- Right context panel -->
    <rect x="580" y="96" width="176" height="292" rx="10" fill="#0d0d11" class="subStroke"/>
    <rect x="592" y="108" width="30" height="16" rx="8" fill="#17171d" class="subStroke"/>
    <text x="607" y="119" class="sans mut" font-size="8" text-anchor="middle">v1.0</text>
    <text x="592" y="152" class="sans txt" font-size="13" font-weight="700">Initiate New</text>
    <text x="592" y="168" class="sans txt" font-size="13" font-weight="700">Threat Assessment</text>
    <text x="592" y="188" class="sans faint" font-size="9">Analyze architecture for</text>
    <text x="592" y="200" class="sans faint" font-size="9">security risks and</text>
    <text x="592" y="212" class="sans faint" font-size="9">compliance gaps.</text>

    <text x="592" y="236" class="sans dim" font-size="8" letter-spacing="1">WHAT HAPPENS NEXT?</text>
    <g transform="translate(592 244)">
      <rect x="0" y="0" width="152" height="32" rx="8" fill="#0a0a0d" class="subStroke"/>
      <rect x="6" y="6" width="20" height="20" rx="5" fill="#17171d"/>
      <text x="16" y="20" class="sans faint" font-size="7" text-anchor="middle">01</text>
      <text x="34" y="14" class="sans txt" font-size="9" font-weight="600">Ingestion</text>
      <text x="34" y="25" class="sans faint" font-size="7">AI extracts components</text>
    </g>
    <g transform="translate(592 282)">
      <rect x="0" y="0" width="152" height="32" rx="8" fill="#0a0a0d" class="subStroke"/>
      <rect x="6" y="6" width="20" height="20" rx="5" fill="#17171d"/>
      <text x="16" y="20" class="sans faint" font-size="7" text-anchor="middle">02</text>
      <text x="34" y="14" class="sans txt" font-size="9" font-weight="600">Analysis</text>
      <text x="34" y="25" class="sans faint" font-size="7">Identifying STRIDE threats</text>
    </g>
    <g transform="translate(592 320)">
      <rect x="0" y="0" width="152" height="32" rx="8" fill="#0a0a0d" class="subStroke"/>
      <rect x="6" y="6" width="20" height="20" rx="5" fill="#17171d"/>
      <text x="16" y="20" class="sans faint" font-size="7" text-anchor="middle">03</text>
      <text x="34" y="14" class="sans txt" font-size="9" font-weight="600">Reporting</text>
      <text x="34" y="25" class="sans faint" font-size="7">Prioritized mitigations</text>
    </g>
  </g>

  <!-- ══════════════════════════════════════════════════════════════
       PANEL 2 — ATM STUDIO (Mermaid renderer)
       ══════════════════════════════════════════════════════════════ -->
  <g transform="translate(810 60)">
    <rect width="770" height="405" rx="14" fill="url(#panel)" class="panelStroke"/>

    <!-- Top bar -->
    <rect x="0" y="0" width="770" height="40" rx="14" fill="#0e0e12"/>
    <rect x="0" y="20" width="770" height="20" fill="#0e0e12"/>
    <text x="20" y="26" class="sans txt" font-size="12" font-weight="600">ATM Studio</text>
    <rect x="120" y="12" width="120" height="18" rx="9" fill="#17171d" class="subStroke"/>
    <text x="180" y="24" class="sans txt" font-size="10" text-anchor="middle">◈ Mermaid Renderer</text>
    <rect x="248" y="12" width="90" height="18" rx="9" fill="#0f2a1a" stroke="#1e5a35"/>
    <text x="293" y="24" class="sans" fill="#3fd47f" font-size="9" text-anchor="middle">● Sandbox mode</text>

    <text x="580" y="22" class="sans mut" font-size="9">Assessment ID</text>
    <rect x="654" y="12" width="80" height="18" rx="6" fill="#0a0a0d" class="subStroke"/>
    <text x="662" y="24" class="sans faint" font-size="9">e.g. abc123</text>
    <rect x="738" y="12" width="20" height="18" rx="6" fill="#f5f5f7"/>
    <text x="748" y="25" class="sans" fill="#0a0a0d" font-size="9" font-weight="700" text-anchor="middle">▶</text>

    <!-- Tabs -->
    <rect x="16" y="52" width="90" height="24" rx="6" fill="#17171d" class="subStroke"/>
    <text x="61" y="68" class="sans txt" font-size="10" text-anchor="middle" font-weight="600">Diagram</text>
    <text x="140" y="68" class="sans mut" font-size="10">ThreatModeller Inventory</text>

    <!-- Split view: code editor -->
    <rect x="16" y="88" width="240" height="300" rx="10" fill="#0a0a0d" class="subStroke"/>
    <text x="28" y="108" class="sans txt" font-size="11" font-weight="600">Mermaid JS</text>
    <rect x="106" y="98" width="34" height="14" rx="7" fill="#0f2a1a" stroke="#1e5a35"/>
    <text x="123" y="108" class="sans" fill="#3fd47f" font-size="8" text-anchor="middle">● live</text>
    <text x="234" y="108" class="sans faint" font-size="8" text-anchor="end">1705 chars</text>

    <g class="mono" font-size="8" fill="#c9c9d0">
      <text x="28" y="128"><tspan class="faint">1  </tspan>C4Context</text>
      <text x="28" y="140"><tspan class="faint">2  </tspan>  <tspan fill="#7ab8ff">title</tspan> System Context</text>
      <text x="28" y="152"><tspan class="faint">3  </tspan>  Enterprise_Boundary(b0)</text>
      <text x="28" y="164"><tspan class="faint">4  </tspan>    Person(customerA, ...)</text>
      <text x="28" y="176"><tspan class="faint">5  </tspan>    Person(customerB, ...)</text>
      <text x="28" y="188"><tspan class="faint">6  </tspan>    Person_Ext(customerC)</text>
      <text x="28" y="200"><tspan class="faint">7  </tspan>    System_Boundary(b1)</text>
      <text x="28" y="212"><tspan class="faint">8  </tspan>      SystemAA(<tspan fill="#e5c07b">"Banking"</tspan>)</text>
      <text x="28" y="224"><tspan class="faint">9  </tspan>      SystemDb_Ext(SystemE)</text>
      <text x="28" y="236"><tspan class="faint">10 </tspan>    <tspan class="mut">}</tspan></text>
      <text x="28" y="248"><tspan class="faint">11 </tspan>    System_Boundary(b2)</text>
      <text x="28" y="260"><tspan class="faint">12 </tspan>      System(SystemA)</text>
      <text x="28" y="272"><tspan class="faint">13 </tspan>      System(SystemB)</text>
      <text x="28" y="284"><tspan class="faint">14 </tspan>    <tspan class="mut">}</tspan></text>
      <text x="28" y="296"><tspan class="faint">15 </tspan>  <tspan class="mut">}</tspan></text>
      <text x="28" y="308"><tspan class="faint">16 </tspan>  BiRel(customerA, SystemAA)</text>
      <text x="28" y="320"><tspan class="faint">17 </tspan>  Rel(SystemA, SystemE, ...)</text>
      <text x="28" y="332"><tspan class="faint">18 </tspan>  Rel(SystemB, customerC)</text>
      <text x="28" y="344"><tspan class="faint">19 </tspan>  Rel(SystemC, customerB)</text>
    </g>

    <!-- Render button -->
    <rect x="28" y="356" width="216" height="24" rx="6" fill="#f5f5f7"/>
    <text x="136" y="372" class="sans" fill="#0a0a0d" font-size="10" text-anchor="middle" font-weight="600">▷ Render Diagram</text>

    <!-- Right: diagram preview -->
    <rect x="264" y="88" width="490" height="300" rx="10" fill="#f5f5f7"/>
    <text x="509" y="106" class="sans" fill="#3a3a42" font-size="9" text-anchor="middle" font-weight="600">System Context diagram for Internet Banking System</text>

    <!-- Big enterprise boundary -->
    <rect x="284" y="118" width="450" height="260" rx="6" fill="none" stroke="#c9c9d0" stroke-dasharray="4 3"/>
    <text x="509" y="130" class="sans" fill="#8a8a90" font-size="8" text-anchor="middle">BankBoundary0 · ENTERPRISE</text>

    <!-- Row of persons -->
    <g>
      <rect x="298" y="146" width="90" height="40" rx="4" fill="#2a5f9e"/>
      <text x="343" y="162" class="sans" fill="#ffffff" font-size="8" text-anchor="middle" font-weight="700">Customer A</text>
      <text x="343" y="174" class="sans" fill="#ffffff" font-size="6" text-anchor="middle">Bank customer</text>
      <text x="343" y="182" class="sans" fill="#ffffff" font-size="6" text-anchor="middle">with accounts</text>

      <rect x="398" y="146" width="90" height="40" rx="4" fill="#2a5f9e"/>
      <text x="443" y="162" class="sans" fill="#ffffff" font-size="8" text-anchor="middle" font-weight="700">Customer B</text>
      <text x="443" y="174" class="sans" fill="#ffffff" font-size="6" text-anchor="middle">Bank customer</text>

      <rect x="498" y="146" width="90" height="40" rx="4" fill="#5a5a60"/>
      <text x="543" y="162" class="sans" fill="#ffffff" font-size="8" text-anchor="middle" font-weight="700">Customer C</text>
      <text x="543" y="174" class="sans" fill="#ffffff" font-size="6" text-anchor="middle">external</text>

      <rect x="598" y="146" width="90" height="40" rx="4" fill="#2a5f9e"/>
      <text x="643" y="162" class="sans" fill="#ffffff" font-size="8" text-anchor="middle" font-weight="700">Customer D</text>
    </g>

    <!-- Middle system -->
    <rect x="398" y="202" width="220" height="34" rx="4" fill="#2a5f9e"/>
    <text x="508" y="218" class="sans" fill="#ffffff" font-size="9" text-anchor="middle" font-weight="700">Internet Banking System</text>
    <text x="508" y="230" class="sans" fill="#ffffff" font-size="6" text-anchor="middle">Allows customers to view balances, make payments</text>

    <!-- Connections -->
    <line x1="343" y1="186" x2="470" y2="202" stroke="#8a8a90"/>
    <line x1="443" y1="186" x2="490" y2="202" stroke="#8a8a90"/>
    <line x1="543" y1="186" x2="530" y2="202" stroke="#8a8a90"/>
    <line x1="643" y1="186" x2="570" y2="202" stroke="#8a8a90"/>

    <!-- Bottom row systems -->
    <rect x="298" y="266" width="130" height="34" rx="4" fill="#8a8a90"/>
    <text x="363" y="282" class="sans" fill="#ffffff" font-size="8" text-anchor="middle" font-weight="700">Mainframe Banking</text>
    <text x="363" y="292" class="sans" fill="#ffffff" font-size="6" text-anchor="middle">Legacy system</text>

    <rect x="440" y="266" width="130" height="34" rx="4" fill="#8a8a90"/>
    <text x="505" y="282" class="sans" fill="#ffffff" font-size="8" text-anchor="middle" font-weight="700">E-mail System</text>

    <rect x="582" y="266" width="130" height="34" rx="4" fill="#2a5f9e"/>
    <text x="647" y="282" class="sans" fill="#ffffff" font-size="8" text-anchor="middle" font-weight="700">Banking DB</text>

    <line x1="440" y1="236" x2="380" y2="266" stroke="#8a8a90"/>
    <line x1="490" y1="236" x2="490" y2="266" stroke="#8a8a90"/>
    <line x1="540" y1="236" x2="620" y2="266" stroke="#8a8a90"/>

    <!-- Sub-boundaries -->
    <rect x="298" y="316" width="180" height="52" rx="4" fill="none" stroke="#c9c9d0" stroke-dasharray="3 2"/>
    <rect x="308" y="326" width="80" height="16" rx="3" fill="#2a5f9e"/>
    <rect x="308" y="346" width="80" height="16" rx="3" fill="#2a5f9e"/>
    <rect x="494" y="316" width="220" height="52" rx="4" fill="none" stroke="#c9c9d0" stroke-dasharray="3 2"/>
    <rect x="504" y="326" width="90" height="16" rx="3" fill="#2a5f9e"/>
    <rect x="504" y="346" width="90" height="16" rx="3" fill="#5a5a60"/>

    <!-- Zoom controls -->
    <rect x="500" y="378" width="90" height="14" rx="7" fill="#e2e2e5"/>
    <text x="545" y="388" class="sans" fill="#3a3a42" font-size="8" text-anchor="middle">⊖   76%   ⊕</text>
  </g>

  <!-- ══════════════════════════════════════════════════════════════
       PANEL 3 — ADMIN PANEL (KB & Onboarding)
       ══════════════════════════════════════════════════════════════ -->
  <g transform="translate(20 480)">
    <rect width="770" height="405" rx="14" fill="url(#panel)" class="panelStroke"/>

    <!-- Top bar -->
    <rect x="0" y="0" width="770" height="40" rx="14" fill="#0e0e12"/>
    <rect x="0" y="20" width="770" height="20" fill="#0e0e12"/>
    <text x="212" y="26" class="sans txt" font-size="12" font-weight="600">Admin Panel</text>

    <!-- Left rail (same style, muted) -->
    <rect x="0" y="40" width="192" height="365" fill="#0a0a0d"/>
    <text x="18" y="72" class="serif txt" font-size="14" font-weight="700">Blanc<tspan class="accent">.</tspan></text>
    <text x="18" y="86" class="sans faint" font-size="8" letter-spacing="1">THREAT MODELING STUDIO</text>
    <rect x="12" y="102" width="168" height="26" rx="6" fill="#17171d" class="subStroke"/>
    <text x="26" y="118" class="sans txt" font-size="10">+ New Assessment</text>
    <text x="18" y="150" class="sans dim" font-size="9" letter-spacing="1">WORKSPACE</text>
    <text x="26" y="170" class="sans mut" font-size="11">Assessments</text>
    <text x="26" y="192" class="sans mut" font-size="11">Under Review</text>
    <text x="26" y="214" class="sans mut" font-size="11">ATM Studio</text>
    <text x="18" y="244" class="sans dim" font-size="9" letter-spacing="1">ADMIN</text>
    <rect x="12" y="252" width="168" height="24" rx="6" fill="#17171d"/>
    <text x="26" y="268" class="sans txt" font-size="11">Admin Panel</text>

    <!-- Main -->
    <rect x="212" y="52" width="28" height="28" rx="6" fill="#17171d"/>
    <path d="M 220 66 h 12 M 220 70 h 12" stroke="#c9c9d0" stroke-width="1.5"/>
    <text x="250" y="70" class="sans txt" font-size="15" font-weight="700">Admin Panel</text>
    <text x="250" y="84" class="sans faint" font-size="9">Manage onboarding, knowledge bases, and platform operations.</text>

    <!-- Onboarding section -->
    <text x="212" y="112" class="sans txt" font-size="12" font-weight="700">Onboarding</text>
    <text x="212" y="126" class="sans faint" font-size="9">Set up organizations and applications with guided workflows.</text>

    <g transform="translate(212 138)">
      <rect x="0" y="0" width="176" height="88" rx="10" fill="#0d0d11" class="subStroke"/>
      <rect x="12" y="12" width="28" height="28" rx="7" fill="#10b981" fill-opacity="0.2"/>
      <rect x="18" y="18" width="16" height="16" rx="2" fill="#10b981"/>
      <text x="12" y="60" class="sans txt" font-size="10" font-weight="700">Org Onboarding</text>
      <text x="12" y="72" class="sans faint" font-size="7">Create and configure orgs,</text>
      <text x="12" y="80" class="sans faint" font-size="7">define policies.</text>
    </g>
    <g transform="translate(396 138)">
      <rect x="0" y="0" width="176" height="88" rx="10" fill="#0d0d11" class="subStroke"/>
      <rect x="12" y="12" width="28" height="28" rx="7" fill="#3b82f6" fill-opacity="0.2"/>
      <rect x="20" y="16" width="12" height="20" rx="2" fill="#3b82f6"/>
      <text x="12" y="60" class="sans txt" font-size="10" font-weight="700">App Onboarding</text>
      <text x="12" y="72" class="sans faint" font-size="7">Register new apps and</text>
      <text x="12" y="80" class="sans faint" font-size="7">assign to organizations.</text>
    </g>
    <g transform="translate(580 138)">
      <rect x="0" y="0" width="176" height="88" rx="10" fill="#0d0d11" class="subStroke"/>
      <rect x="12" y="12" width="28" height="28" rx="7" fill="#8b5cf6" fill-opacity="0.2"/>
      <rect x="16" y="16" width="20" height="16" rx="2" fill="#8b5cf6"/>
      <rect x="140" y="8" width="24" height="14" rx="7" fill="#8b5cf6"/>
      <text x="152" y="18" class="sans" fill="#ffffff" font-size="7" text-anchor="middle" font-weight="700">NEW</text>
      <text x="12" y="60" class="sans txt" font-size="10" font-weight="700">Question Manager</text>
      <text x="12" y="72" class="sans faint" font-size="7">View, create, bulk-import</text>
      <text x="12" y="80" class="sans faint" font-size="7">onboarding questions.</text>
    </g>

    <!-- KB section -->
    <text x="212" y="248" class="sans txt" font-size="12" font-weight="700">RAG &amp; Knowledge Bases</text>
    <text x="212" y="262" class="sans faint" font-size="9">Ingest documents, manage vector stores, keep AI context current.</text>

    <g transform="translate(212 274)">
      <rect x="0" y="0" width="176" height="88" rx="10" fill="#0d0d11" class="subStroke"/>
      <rect x="12" y="12" width="28" height="28" rx="7" fill="#8b5cf6" fill-opacity="0.2"/>
      <path d="M 18 20 h 16 v 16 h -16 z" fill="none" stroke="#8b5cf6" stroke-width="1.5"/>
      <path d="M 22 24 h 8 M 22 28 h 8 M 22 32 h 4" stroke="#8b5cf6" stroke-width="0.8"/>
      <rect x="140" y="8" width="30" height="14" rx="7" fill="#5a5a60" fill-opacity="0.3"/>
      <text x="155" y="18" class="sans mut" font-size="7" text-anchor="middle" font-weight="700">CORE</text>
      <text x="12" y="60" class="sans txt" font-size="10" font-weight="700">General KB</text>
      <text x="12" y="72" class="sans faint" font-size="7">SOPs, product specs,</text>
      <text x="12" y="80" class="sans faint" font-size="7">business docs.</text>
    </g>
    <g transform="translate(396 274)">
      <rect x="0" y="0" width="176" height="88" rx="10" fill="#0d0d11" class="subStroke"/>
      <rect x="12" y="12" width="28" height="28" rx="7" fill="#ec4899" fill-opacity="0.2"/>
      <path d="M 26 16 l -6 4 v 8 c 0 3 3 6 6 7 c 3 -1 6 -4 6 -7 v -8 z" fill="#ec4899"/>
      <rect x="128" y="8" width="42" height="14" rx="7" fill="#ec4899" fill-opacity="0.25"/>
      <text x="149" y="18" class="sans" fill="#ec4899" font-size="7" text-anchor="middle" font-weight="700">SECURITY</text>
      <text x="12" y="60" class="sans txt" font-size="10" font-weight="700">Security KB</text>
      <text x="12" y="72" class="sans faint" font-size="7">Threat models, network</text>
      <text x="12" y="80" class="sans faint" font-size="7">architecture, vuln reports.</text>
    </g>
    <g transform="translate(580 274)">
      <rect x="0" y="0" width="176" height="88" rx="10" fill="#0d0d11" class="subStroke"/>
      <rect x="12" y="12" width="28" height="28" rx="7" fill="#f59e0b" fill-opacity="0.2"/>
      <path d="M 20 18 l 6 4 l 6 -4 l -6 -4 z M 18 24 l 8 4 l 8 -4 M 18 30 l 8 4 l 8 -4" stroke="#f59e0b" fill="none" stroke-width="1.2"/>
      <rect x="120" y="8" width="50" height="14" rx="7" fill="#f59e0b" fill-opacity="0.25"/>
      <text x="145" y="18" class="sans" fill="#f59e0b" font-size="7" text-anchor="middle" font-weight="700">COMPLIANCE</text>
      <text x="12" y="60" class="sans txt" font-size="10" font-weight="700">Compliance KB</text>
      <text x="12" y="72" class="sans faint" font-size="7">Legal frameworks, audit</text>
      <text x="12" y="80" class="sans faint" font-size="7">logs, GDPR / ISO / SOC.</text>
    </g>

    <!-- Bottom pill -->
    <rect x="335" y="378" width="100" height="18" rx="9" fill="#0e0e12" class="subStroke"/>
    <text x="385" y="390" class="sans mut" font-size="9" text-anchor="middle">◈ ATM ADMIN · V1</text>
  </g>

  <!-- ══════════════════════════════════════════════════════════════
       PANEL 4 — ASSESSMENTS TABLE
       ══════════════════════════════════════════════════════════════ -->
  <g transform="translate(810 480)">
    <rect width="770" height="405" rx="14" fill="url(#panel)" class="panelStroke"/>

    <!-- Top bar -->
    <rect x="0" y="0" width="770" height="40" rx="14" fill="#0e0e12"/>
    <rect x="0" y="20" width="770" height="20" fill="#0e0e12"/>
    <text x="20" y="26" class="sans txt" font-size="12" font-weight="600">My Assessments</text>

    <!-- Header -->
    <rect x="20" y="56" width="28" height="28" rx="6" fill="#17171d"/>
    <rect x="26" y="62" width="16" height="4" rx="1" fill="#c9c9d0"/>
    <rect x="26" y="70" width="16" height="4" rx="1" fill="#c9c9d0"/>
    <rect x="26" y="78" width="16" height="4" rx="1" fill="#c9c9d0"/>
    <text x="58" y="72" class="sans txt" font-size="15" font-weight="700">Assessments</text>
    <text x="58" y="86" class="sans faint" font-size="9">Monitor security pipeline status and STRIDE modeling.</text>

    <rect x="606" y="60" width="144" height="24" rx="12" fill="#f5f5f7"/>
    <text x="678" y="76" class="sans" fill="#0a0a0d" font-size="10" text-anchor="middle" font-weight="600">+ New Assessment</text>

    <!-- Tabs -->
    <rect x="20" y="104" width="180" height="26" rx="8" fill="#0e0e12" class="subStroke"/>
    <rect x="24" y="108" width="86" height="18" rx="6" fill="#17171d"/>
    <text x="67" y="121" class="sans txt" font-size="9" text-anchor="middle" font-weight="600">My Assessments</text>
    <text x="150" y="121" class="sans mut" font-size="9" text-anchor="middle">All Assessments</text>

    <!-- Search -->
    <rect x="20" y="142" width="720" height="30" rx="8" fill="#0d0d11" class="subStroke"/>
    <rect x="28" y="148" width="36" height="18" rx="6" fill="#17171d"/>
    <text x="46" y="161" class="sans txt" font-size="9" text-anchor="middle">All</text>
    <rect x="70" y="148" width="72" height="18" rx="6" fill="#17171d"/>
    <text x="106" y="161" class="sans txt" font-size="9" text-anchor="middle">Change App</text>
    <text x="160" y="161" class="sans faint" font-size="9">🔍 Search by feature name, app, or org…</text>
    <rect x="704" y="148" width="28" height="18" rx="6" fill="#17171d"/>
    <text x="718" y="161" class="sans txt" font-size="9" text-anchor="middle">↻</text>

    <!-- Table header -->
    <line x1="20" y1="188" x2="750" y2="188" stroke="#22222a"/>
    <text x="30"  y="204" class="sans mut" font-size="9" font-weight="600">Feature name</text>
    <text x="180" y="204" class="sans mut" font-size="9" font-weight="600">Feature version</text>
    <text x="330" y="204" class="sans mut" font-size="9" font-weight="600">Creator Email</text>
    <text x="510" y="204" class="sans mut" font-size="9" font-weight="600">Current Status</text>
    <text x="740" y="204" class="sans mut" font-size="9" font-weight="600" text-anchor="end">Actions</text>
    <line x1="20" y1="212" x2="750" y2="212" stroke="#22222a"/>

    <!-- Rows -->
    <g class="sans" font-size="9">
      <!-- Row 1: In Review -->
      <text x="30"  y="230" class="txt">testt</text>
      <text x="180" y="230" class="mut">6.0.0</text>
      <text x="330" y="230" class="mut">alice.wong@example.com</text>
      <rect x="510" y="220" width="66" height="16" rx="8" fill="#8b5cf6" fill-opacity="0.18"/>
      <text x="543" y="231" fill="#c4b5fd" text-anchor="middle" font-size="8" font-weight="600">◔ In Review</text>
      <text x="740" y="231" fill="#c9c9d0" text-anchor="end">View →</text>
      <line x1="20" y1="240" x2="750" y2="240" stroke="#1a1a22"/>

      <!-- Row 2: awaiting -->
      <text x="30"  y="258" class="txt">testt</text>
      <text x="180" y="258" class="mut">5.0.0</text>
      <text x="330" y="258" class="mut">alice.wong@example.com</text>
      <rect x="510" y="248" width="80" height="16" rx="8" fill="#3a3a42"/>
      <text x="550" y="259" class="mut" text-anchor="middle" font-size="8" font-weight="600">awaiting_review</text>
      <text x="740" y="259" fill="#c9c9d0" text-anchor="end">View →</text>
      <line x1="20" y1="268" x2="750" y2="268" stroke="#1a1a22"/>

      <!-- Row 3: In Review -->
      <text x="30"  y="286" class="txt">testt</text>
      <text x="180" y="286" class="mut">4.0.0</text>
      <text x="330" y="286" class="mut">alice.wong@example.com</text>
      <rect x="510" y="276" width="66" height="16" rx="8" fill="#8b5cf6" fill-opacity="0.18"/>
      <text x="543" y="287" fill="#c4b5fd" text-anchor="middle" font-size="8" font-weight="600">◔ In Review</text>
      <text x="740" y="287" fill="#c9c9d0" text-anchor="end">View →</text>
      <line x1="20" y1="296" x2="750" y2="296" stroke="#1a1a22"/>

      <!-- Row 4: Needs Input -->
      <text x="30"  y="314" class="txt">testt</text>
      <text x="180" y="314" class="mut">3.0.0</text>
      <text x="330" y="314" class="mut">alice.wong@example.com</text>
      <rect x="510" y="304" width="72" height="16" rx="8" fill="#f59e0b" fill-opacity="0.18"/>
      <text x="546" y="315" fill="#fbbf24" text-anchor="middle" font-size="8" font-weight="600">◔ Needs Input</text>
      <text x="740" y="315" fill="#c9c9d0" text-anchor="end">View →</text>
      <line x1="20" y1="324" x2="750" y2="324" stroke="#1a1a22"/>

      <!-- Row 5: Needs Input -->
      <text x="30"  y="342" class="txt">testt</text>
      <text x="180" y="342" class="mut">2.0.0</text>
      <text x="330" y="342" class="mut">alice.wong@example.com</text>
      <rect x="510" y="332" width="72" height="16" rx="8" fill="#f59e0b" fill-opacity="0.18"/>
      <text x="546" y="343" fill="#fbbf24" text-anchor="middle" font-size="8" font-weight="600">◔ Needs Input</text>
      <text x="740" y="343" fill="#c9c9d0" text-anchor="end">View →</text>
      <line x1="20" y1="352" x2="750" y2="352" stroke="#1a1a22"/>

      <!-- Row 6: Failed w/ Retry -->
      <text x="30"  y="370" class="txt">testt</text>
      <text x="180" y="370" class="mut">1.0.0</text>
      <text x="330" y="370" class="mut">alice.wong@example.com</text>
      <rect x="510" y="360" width="52" height="16" rx="8" fill="#ef4444" fill-opacity="0.18"/>
      <text x="536" y="371" fill="#fca5a5" text-anchor="middle" font-size="8" font-weight="600">◔ Failed</text>
      <rect x="666" y="360" width="46" height="16" rx="8" fill="#ef4444" fill-opacity="0.2"/>
      <text x="689" y="371" fill="#fca5a5" text-anchor="middle" font-size="8" font-weight="600">↻ Retry</text>
      <text x="740" y="371" fill="#c9c9d0" text-anchor="end">View →</text>
    </g>
  </g>

  <!-- ═══════════════ FOOTER CAPTIONS ═══════════════ -->
  <g class="sans" font-size="9" fill="#5a5a60">
    <text x="30"   y="898">New Assessment · Ingest architecture &amp; context</text>
    <text x="820"  y="898">ATM Studio · Live Mermaid renderer &amp; sandbox</text>
    <text x="30"   y="880" fill="transparent"> </text>
  </g>
</svg>
